# WaveFront *.obj file (generated by Autodesk ATF)

mtllib Cajòn totem.mtl

g Sólido1

v -145.000000 0.000000 -200.000000
v -145.000000 0.000000 -150.000000
v -145.000000 0.000000 150.000000
v -145.000000 0.000000 200.000000
v -145.000000 120.000000 -200.000000
v -145.000000 120.000000 -150.000000
v -145.000000 120.000000 150.000000
v -145.000000 120.000000 200.000000
v -25.000000 0.000000 -150.000000
v -25.000000 0.000000 150.000000
v -25.000000 120.000000 -150.000000
v -25.000000 120.000000 150.000000
v 25.000000 0.000000 -200.000000
v 25.000000 0.000000 200.000000
v 25.000000 120.000000 -200.000000
v 25.000000 120.000000 200.000000
vt 0.000000 0.000000 0.000000
vt 5.000000 0.000000 0.000000
vt 5.000000 12.000000 0.000000
vt 0.000000 12.000000 0.000000
vt 0.000000 0.000000 0.000000
vt 12.000000 0.000000 0.000000
vt 12.000000 12.000000 0.000000
vt 0.000000 12.000000 0.000000
vt 0.000000 0.000000 0.000000
vt 30.000000 0.000000 0.000000
vt 30.000000 12.000000 0.000000
vt 0.000000 12.000000 0.000000
vt 0.000000 0.000000 0.000000
vt 12.000000 0.000000 0.000000
vt 12.000000 12.000000 0.000000
vt 0.000000 12.000000 0.000000
vt 0.000000 0.000000 0.000000
vt 5.000000 0.000000 0.000000
vt 5.000000 12.000000 0.000000
vt 0.000000 12.000000 0.000000
vt 0.000000 0.000000 0.000000
vt 17.000000 0.000000 0.000000
vt 17.000000 12.000000 0.000000
vt 0.000000 12.000000 0.000000
vt 0.000000 0.000000 0.000000
vt 40.000000 0.000000 0.000000
vt 40.000000 12.000000 0.000000
vt 0.000000 12.000000 0.000000
vt 0.000000 0.000000 0.000000
vt 17.000000 0.000000 0.000000
vt 17.000000 12.000000 0.000000
vt 0.000000 12.000000 0.000000
vt 20.000000 -8.500000 0.000000
vt 20.000000 8.500000 0.000000
vt -20.000000 8.500000 0.000000
vt -20.000000 -8.500000 0.000000
vt -15.000000 -8.500000 0.000000
vt -15.000000 3.500000 0.000000
vt 15.000000 3.500000 0.000000
vt 15.000000 -8.500000 0.000000
vt -20.000000 8.500000 0.000000
vt -20.000000 -8.500000 0.000000
vt -15.000000 -8.500000 0.000000
vt -15.000000 3.500000 0.000000
vt 15.000000 3.500000 0.000000
vt 15.000000 -8.500000 0.000000
vt 20.000000 -8.500000 0.000000
vt 20.000000 8.500000 0.000000
vn -0.100000 0.000000 0.000000
vn -0.100000 0.000000 0.000000
vn -0.100000 0.000000 0.000000
vn -0.100000 0.000000 0.000000
vn 0.000000 0.000000 -0.100000
vn 0.000000 0.000000 -0.100000
vn 0.000000 0.000000 -0.100000
vn 0.000000 0.000000 -0.100000
vn -0.100000 0.000000 0.000000
vn -0.100000 0.000000 0.000000
vn -0.100000 0.000000 0.000000
vn -0.100000 0.000000 0.000000
vn 0.000000 0.000000 0.100000
vn 0.000000 0.000000 0.100000
vn 0.000000 0.000000 0.100000
vn 0.000000 0.000000 0.100000
vn -0.100000 0.000000 0.000000
vn -0.100000 0.000000 0.000000
vn -0.100000 0.000000 0.000000
vn -0.100000 0.000000 0.000000
vn 0.000000 0.000000 -0.100000
vn 0.000000 0.000000 -0.100000
vn 0.000000 0.000000 -0.100000
vn 0.000000 0.000000 -0.100000
vn 0.100000 0.000000 0.000000
vn 0.100000 0.000000 0.000000
vn 0.100000 0.000000 0.000000
vn 0.100000 0.000000 0.000000
vn 0.000000 0.000000 0.100000
vn 0.000000 0.000000 0.100000
vn 0.000000 0.000000 0.100000
vn 0.000000 0.000000 0.100000
vn 0.000000 0.100000 0.000000
vn 0.000000 0.100000 0.000000
vn 0.000000 0.100000 0.000000
vn 0.000000 0.100000 0.000000
vn 0.000000 0.100000 0.000000
vn 0.000000 0.100000 0.000000
vn 0.000000 0.100000 0.000000
vn 0.000000 0.100000 0.000000
vn 0.000000 -0.100000 0.000000
vn 0.000000 -0.100000 0.000000
vn 0.000000 -0.100000 0.000000
vn 0.000000 -0.100000 0.000000
vn 0.000000 -0.100000 0.000000
vn 0.000000 -0.100000 0.000000
vn 0.000000 -0.100000 0.000000
vn 0.000000 -0.100000 0.000000
usemtl 191,191,191
f 3/1/1 4/2/2 7/4/4
f 7/4/4 4/2/2 8/3/3
f 10/5/5 3/6/6 12/8/8
f 12/8/8 3/6/6 7/7/7
f 9/9/9 10/10/10 11/12/12
f 11/12/12 10/10/10 12/11/11
f 2/13/13 9/14/14 6/16/16
f 6/16/16 9/14/14 11/15/15
f 1/17/17 2/18/18 5/20/20
f 5/20/20 2/18/18 6/19/19
f 13/21/21 1/22/22 15/24/24
f 15/24/24 1/22/22 5/23/23
f 14/25/25 13/26/26 16/28/28
f 16/28/28 13/26/26 15/27/27
f 4/29/29 14/30/30 8/32/32
f 8/32/32 14/30/30 16/31/31
f 7/40/40 8/33/33 12/39/39
f 12/39/39 8/33/33 16/34/34
f 12/39/39 16/34/34 15/35/35
f 12/39/39 15/35/35 11/38/38
f 11/38/38 15/35/35 5/36/36
f 11/38/38 5/36/36 6/37/37
f 4/42/42 10/44/44 14/41/41
f 14/41/41 10/44/44 9/45/45
f 14/41/41 9/45/45 13/48/48
f 13/48/48 9/45/45 1/47/47
f 1/47/47 9/45/45 2/46/46
f 4/42/42 3/43/43 10/44/44
# 16 vertices
# 48 texture params
# 48 normals
# 28 facets

# 1 groups
